<svg width="2600" height="2600" viewBox="0 0 2600 2600" fill="none" xmlns="http://www.w3.org/2000/svg">
<path d="M1185.5 705.7C1185.8 707.3 1186.7 712.8 1187.6 718C1189.7 731 1192.2 741.1 1197 757C1208 793.3 1210.1 826.1 1203.6 858.2C1196.3 893.9 1181.3 923.6 1129.6 1004.5C1079.9 1082.4 1072.9 1094.6 1066 1115C1060.2 1132.4 1058.6 1141.8 1058.6 1159C1058.7 1176.4 1060.1 1183.4 1066.4 1198.1C1076.8 1222.1 1101.5 1248.7 1131.5 1268.3C1143.3 1276 1154.9 1282.4 1155.6 1281.7C1156.3 1281 1152.5 1261.6 1148.4 1244.2C1138.2 1201.7 1139.9 1177.2 1155.6 1140.4C1160.3 1129.4 1169.5 1111.9 1177.1 1099.9C1179.7 1095.7 1198.9 1066.6 1219.8 1035.2C1267.3 963.9 1280.8 941.6 1289.4 920.3C1306.4 878 1305.4 839.6 1286.3 801.5C1276.7 782.4 1262.4 764.3 1239.4 742C1222.2 725.3 1206.7 713.8 1190.3 705.6L1185 703L1185.5 705.7Z" fill="white"/>
<path d="M1332.5 790.6C1330.6 792 1330.6 792.1 1332.9 803.8C1335.2 815 1336.6 820.6 1342.4 842.5C1346.7 858.7 1348.3 870.2 1348.3 886.5C1348.3 909.5 1344.8 927.9 1336.4 948.3C1330.1 963.7 1322.3 977.1 1303.2 1005.4C1241.4 1096.7 1207.3 1149.3 1201.5 1162.3C1194 1179.4 1192.4 1199.7 1197.4 1216.4C1205.8 1244.6 1221.2 1265.3 1249.6 1286.6C1272.9 1304.1 1281 1307.9 1281 1301.4C1281 1296.8 1278.8 1284.6 1276 1273C1267.6 1239.4 1270.4 1210.9 1285 1180.5C1290.5 1169.1 1297.3 1158.5 1313.8 1135.6C1377 1047.8 1414.4 993.4 1421.8 978.5C1441.3 939.1 1437.1 896.6 1410 857.8C1400.2 843.8 1375.2 819.2 1353.8 802.7C1344.1 795.2 1335.8 789 1335.3 789C1334.9 789 1333.6 789.7 1332.5 790.6Z" fill="white"/>
<path d="M596 1303.1C516.2 1307.4 467.4 1323.1 454.5 1348.6C451.8 1353.9 451.5 1355.4 451.5 1364C451.5 1371.8 451.9 1374.5 453.9 1379C463.6 1401.1 486.5 1423.7 525.5 1449.7C685.1 1556 1055 1669.3 1362.8 1706C1424.4 1713.3 1464.5 1716.1 1519.7 1716.7C1588.1 1717.5 1627.2 1714.2 1662.6 1704.5C1693.3 1696 1710.9 1685 1718.1 1669.5C1721 1663.3 1721.2 1662.3 1720.8 1654.1C1720.5 1646.6 1719.9 1644.3 1716.7 1637.5C1714.6 1633.2 1710.7 1626.7 1708.1 1623.1C1701.9 1614.8 1683.2 1596.5 1672 1587.8C1546 1490.4 1223.4 1379.9 914.5 1328.6C791.6 1308.1 675.2 1298.8 596 1303.1ZM680 1376C792.6 1380.9 925.3 1400.6 1069 1433.6C1221.9 1468.8 1363.2 1513.8 1478.5 1564C1505.7 1575.8 1559.2 1602.3 1579.2 1613.8C1603.5 1627.8 1619.7 1638.6 1617.4 1639.4C1605.4 1643.1 1524.9 1645.3 1482.1 1643.1C1271.6 1632.2 982.8 1568.4 764.5 1484.6C684.4 1453.8 609.8 1417.9 565.2 1388.8C558.5 1384.3 553.1 1380.6 553.2 1380.4C553.9 1379.8 582.4 1376.9 596 1376.1C617.1 1374.9 654.2 1374.9 680 1376Z" fill="white"/>
<path d="M431.7 1437.7C426.3 1460.1 421.2 1482.3 420.4 1487C417.9 1501.7 417.5 1529.5 419.5 1545C424.3 1583.3 438.4 1617.9 461.4 1648.5C482.9 1676.9 539.4 1724.6 598 1763.8C823.1 1914.1 1149.3 1991.5 1416 1958C1483.3 1949.5 1550.8 1933 1581.3 1917.6C1614.3 1900.9 1643.8 1874.7 1663.6 1844.4C1667.3 1838.7 1670.7 1834 1671.1 1834C1671.4 1834 1795.8 1864.2 1947.5 1901C2099.2 1937.9 2224.7 1968 2226.4 1968C2233.5 1967.9 2244.2 1959.6 2247.6 1951.4C2248.4 1949.4 2253.4 1930.2 2258.6 1908.7C2269.5 1863.9 2269.9 1860.4 2265.3 1851.2C2259.9 1840.3 2286.4 1847.6 1983 1773.9C1833.1 1737.5 1710.2 1707.2 1709.8 1706.6C1709.3 1705.9 1709 1706 1709 1707C1709 1707.8 1707.4 1710.9 1705.5 1713.8C1665.1 1773.7 1412.3 1769 1109 1702.6C793.2 1633.5 508.8 1516.2 452.7 1431.9C445.5 1421 442.9 1414.3 442.1 1404.7L441.5 1396.9L431.7 1437.7Z" fill="white"/>
</svg>
