<?xml version="1.0" standalone="no"?>
<!DOCTYPE svg PUBLIC "-//W3C//DTD SVG 20010904//EN"
 "http://www.w3.org/TR/2001/REC-SVG-20010904/DTD/svg10.dtd">
<svg version="1.0" xmlns="http://www.w3.org/2000/svg"
 viewBox="0 0 2600.000000 2600.000000"
 preserveAspectRatio="xMidYMid meet">
<metadata>
Created by potrace 1.15, written by Peter Selinger 2001-2017
</metadata>
<g transform="translate(0.000000,2600.000000) scale(0.100000,-0.100000)"
fill="#000000" stroke="none">
<path d="M11855 18943 c3 -16 12 -71 21 -123 21 -130 46 -231 94 -390 110
-363 131 -691 66 -1012 -73 -357 -223 -654 -740 -1463 -497 -779 -567 -901
-636 -1105 -58 -174 -74 -268 -74 -440 1 -174 15 -244 78 -391 104 -240 351
-506 651 -702 118 -77 234 -141 241 -134 7 7 -31 201 -72 375 -102 425 -85
670 72 1038 47 110 139 285 215 405 26 42 218 333 427 647 475 713 610 936
696 1149 170 423 160 807 -31 1188 -96 191 -239 372 -469 595 -172 167 -327
282 -491 364 l-53 26 5 -27z"/>
<path d="M13325 18094 c-19 -14 -19 -15 4 -132 23 -112 37 -168 95 -387 43
-162 59 -277 59 -440 0 -230 -35 -414 -119 -618 -63 -154 -141 -288 -332 -571
-618 -913 -959 -1439 -1017 -1569 -75 -171 -91 -374 -41 -541 84 -282 238
-489 522 -702 233 -175 314 -213 314 -148 0 46 -22 168 -50 284 -84 336 -56
621 90 925 55 114 123 220 288 449 632 878 1006 1422 1080 1571 195 394 153
819 -118 1207 -98 140 -348 386 -562 551 -97 75 -180 137 -185 137 -4 0 -17
-7 -28 -16z"/>
<path d="M5960 12969 c-798 -43 -1286 -200 -1415 -455 -27 -53 -30 -68 -30
-154 0 -78 4 -105 24 -150 97 -221 326 -447 716 -707 1596 -1063 5295 -2196
8373 -2563 616 -73 1017 -101 1569 -107 684 -8 1075 25 1429 122 307 85 483
195 555 350 29 62 31 72 27 154 -3 75 -9 98 -41 166 -21 43 -60 108 -86 144
-62 83 -249 266 -361 353 -1260 974 -4486 2079 -7575 2592 -1229 205 -2393
298 -3185 255z m840 -729 c1126 -49 2453 -246 3890 -576 1529 -352 2942 -802
4095 -1304 272 -118 807 -383 1007 -498 243 -140 405 -248 382 -256 -120 -37
-925 -59 -1353 -37 -2105 109 -4993 747 -7176 1585 -801 308 -1547 667 -1993
958 -67 45 -121 82 -120 84 7 6 292 35 428 43 211 12 582 12 840 1z"/>
<path d="M4317 11623 c-54 -224 -105 -446 -113 -493 -25 -147 -29 -425 -9
-580 48 -383 189 -729 419 -1035 215 -284 780 -761 1366 -1153 2251 -1503
5513 -2277 8180 -1942 673 85 1348 250 1653 404 330 167 625 429 823 732 37
57 71 104 75 104 3 0 1247 -302 2764 -670 1517 -369 2772 -670 2789 -670 71 1
178 84 212 166 8 20 58 212 110 427 109 448 113 483 67 575 -54 109 211 36
-2823 773 -1499 364 -2728 667 -2732 673 -5 7 -8 6 -8 -4 0 -8 -16 -39 -35
-68 -404 -599 -2932 -552 -5965 112 -3158 691 -6002 1864 -6563 2707 -72 109
-98 176 -106 272 l-6 78 -98 -408z"/>
</g>
</svg>
