<svg width="161" height="40" viewBox="0 0 161 40" fill="none" xmlns="http://www.w3.org/2000/svg">
<path d="M36.0427 28.32C34.8561 28.32 33.7894 27.9733 32.8427 27.28C31.8961 26.5867 31.2427 25.6133 30.8827 24.36L33.0027 23.5C33.2161 24.2867 33.5894 24.9333 34.1227 25.44C34.6694 25.9333 35.3227 26.18 36.0827 26.18C36.7894 26.18 37.3894 26 37.8827 25.64C38.3761 25.2667 38.6227 24.76 38.6227 24.12C38.6227 23.5333 38.4027 23.0533 37.9627 22.68C37.5361 22.2933 36.7827 21.9067 35.7027 21.52L34.8027 21.2C33.8427 20.8667 33.0361 20.3867 32.3827 19.76C31.7294 19.1333 31.4027 18.3067 31.4027 17.28C31.4027 16.5733 31.5961 15.92 31.9827 15.32C32.3694 14.72 32.9027 14.2467 33.5827 13.9C34.2761 13.54 35.0561 13.36 35.9227 13.36C37.1761 13.36 38.1761 13.6667 38.9227 14.28C39.6694 14.88 40.1694 15.56 40.4227 16.32L38.4027 17.18C38.2561 16.7267 37.9761 16.3267 37.5627 15.98C37.1494 15.6333 36.6161 15.46 35.9627 15.46C35.3094 15.46 34.7561 15.6267 34.3027 15.96C33.8627 16.2933 33.6427 16.72 33.6427 17.24C33.6427 17.7333 33.8427 18.14 34.2427 18.46C34.6427 18.78 35.2694 19.0867 36.1227 19.38L37.0227 19.68C38.2494 20.1067 39.1961 20.6667 39.8627 21.36C40.5427 22.04 40.8827 22.9533 40.8827 24.1C40.8827 25.0333 40.6427 25.82 40.1627 26.46C39.6827 27.0867 39.0694 27.5533 38.3227 27.86C37.5894 28.1667 36.8294 28.32 36.0427 28.32ZM44.2676 16.4C43.8542 16.4 43.5009 16.26 43.2076 15.98C42.9276 15.6867 42.7876 15.3333 42.7876 14.92C42.7876 14.5067 42.9276 14.16 43.2076 13.88C43.5009 13.5867 43.8542 13.44 44.2676 13.44C44.6809 13.44 45.0276 13.5867 45.3076 13.88C45.6009 14.16 45.7476 14.5067 45.7476 14.92C45.7476 15.3333 45.6009 15.6867 45.3076 15.98C45.0276 16.26 44.6809 16.4 44.2676 16.4ZM43.1676 18.08H45.3676V28H43.1676V18.08ZM47.4876 26.16L52.9076 20H47.6476V18.08H55.6076V19.92L50.1876 26.08H55.7076V28H47.4876V26.16ZM57.1555 26.16L62.5755 20H57.3155V18.08H65.2755V19.92L59.8555 26.08H65.3755V28H57.1555V26.16ZM67.5388 13.68H69.7388V28H67.5388V13.68ZM76.6887 28.32C75.7153 28.32 74.8353 28.0933 74.0487 27.64C73.2753 27.1867 72.6687 26.56 72.2287 25.76C71.7887 24.9467 71.5687 24.04 71.5687 23.04C71.5687 22.08 71.7753 21.2 72.1887 20.4C72.6153 19.5867 73.2087 18.9467 73.9687 18.48C74.7287 18 75.5953 17.76 76.5687 17.76C77.5687 17.76 78.4353 17.98 79.1687 18.42C79.9153 18.86 80.482 19.4733 80.8687 20.26C81.2553 21.0333 81.4487 21.9267 81.4487 22.94C81.4487 23.06 81.442 23.18 81.4287 23.3C81.4153 23.42 81.4087 23.4867 81.4087 23.5H73.7687C73.8353 24.4067 74.162 25.1067 74.7487 25.6C75.3353 26.0933 76.002 26.34 76.7487 26.34C77.8953 26.34 78.7753 25.8067 79.3887 24.74L81.2687 25.64C80.8287 26.4533 80.2153 27.1067 79.4287 27.6C78.6553 28.08 77.742 28.32 76.6887 28.32ZM79.2087 21.82C79.182 21.5 79.0753 21.1733 78.8887 20.84C78.702 20.5067 78.4087 20.2267 78.0087 20C77.622 19.76 77.1353 19.64 76.5487 19.64C75.8953 19.64 75.3287 19.84 74.8487 20.24C74.382 20.64 74.062 21.1667 73.8887 21.82H79.2087ZM91.863 28.32C90.6764 28.32 89.6097 27.9733 88.663 27.28C87.7164 26.5867 87.063 25.6133 86.703 24.36L88.823 23.5C89.0364 24.2867 89.4097 24.9333 89.943 25.44C90.4897 25.9333 91.143 26.18 91.903 26.18C92.6097 26.18 93.2097 26 93.703 25.64C94.1964 25.2667 94.443 24.76 94.443 24.12C94.443 23.5333 94.223 23.0533 93.783 22.68C93.3564 22.2933 92.603 21.9067 91.523 21.52L90.623 21.2C89.663 20.8667 88.8564 20.3867 88.203 19.76C87.5497 19.1333 87.223 18.3067 87.223 17.28C87.223 16.5733 87.4164 15.92 87.803 15.32C88.1897 14.72 88.723 14.2467 89.403 13.9C90.0964 13.54 90.8764 13.36 91.743 13.36C92.9964 13.36 93.9964 13.6667 94.743 14.28C95.4897 14.88 95.9897 15.56 96.243 16.32L94.223 17.18C94.0764 16.7267 93.7964 16.3267 93.383 15.98C92.9697 15.6333 92.4364 15.46 91.783 15.46C91.1297 15.46 90.5764 15.6267 90.123 15.96C89.683 16.2933 89.463 16.72 89.463 17.24C89.463 17.7333 89.663 18.14 90.063 18.46C90.463 18.78 91.0897 19.0867 91.943 19.38L92.843 19.68C94.0697 20.1067 95.0164 20.6667 95.683 21.36C96.363 22.04 96.703 22.9533 96.703 24.1C96.703 25.0333 96.463 25.82 95.983 26.46C95.503 27.0867 94.8897 27.5533 94.143 27.86C93.4097 28.1667 92.6497 28.32 91.863 28.32ZM102.4 28.16C101.96 28.16 101.547 28.0933 101.16 27.96C100.787 27.8133 100.473 27.6133 100.22 27.36C99.6467 26.8 99.3601 26.02 99.3601 25.02V20.02H97.6201V18.08H99.3601V15.12H101.56V18.08H103.98V20.02H101.56V24.54C101.56 25.0867 101.667 25.4733 101.88 25.7C102.08 25.9667 102.407 26.1 102.86 26.1C103.247 26.1 103.627 25.9867 104 25.76V27.9C103.533 28.0733 103 28.16 102.4 28.16ZM108.961 28.32C108.254 28.32 107.614 28.18 107.041 27.9C106.481 27.6067 106.034 27.2067 105.701 26.7C105.381 26.18 105.221 25.5933 105.221 24.94C105.221 23.9 105.607 23.08 106.381 22.48C107.167 21.88 108.161 21.58 109.361 21.58C110.414 21.58 111.314 21.76 112.061 22.12V21.7C112.061 21.1 111.821 20.6067 111.341 20.22C110.874 19.82 110.307 19.62 109.641 19.62C108.627 19.62 107.814 20.0333 107.201 20.86L105.521 19.7C105.987 19.0733 106.567 18.5933 107.261 18.26C107.967 17.9267 108.761 17.76 109.641 17.76C111.094 17.76 112.214 18.1267 113.001 18.86C113.801 19.58 114.201 20.6 114.201 21.92V28H112.061V26.78H111.941C111.621 27.2333 111.214 27.6067 110.721 27.9C110.227 28.18 109.641 28.32 108.961 28.32ZM109.321 26.5C109.814 26.5 110.267 26.38 110.681 26.14C111.107 25.8867 111.441 25.56 111.681 25.16C111.934 24.7467 112.061 24.3067 112.061 23.84C111.354 23.4533 110.601 23.26 109.801 23.26C109.067 23.26 108.494 23.42 108.081 23.74C107.667 24.06 107.461 24.4667 107.461 24.96C107.461 25.4133 107.641 25.7867 108.001 26.08C108.374 26.36 108.814 26.5 109.321 26.5ZM116.523 18.08H118.603V19.56H118.723C118.977 19.0133 119.377 18.5867 119.923 18.28C120.483 17.96 121.09 17.8 121.743 17.8C122.077 17.8 122.343 17.82 122.543 17.86V20.1C122.25 19.9933 121.917 19.94 121.543 19.94C120.703 19.94 120.023 20.2067 119.503 20.74C118.983 21.26 118.723 21.9467 118.723 22.8V28H116.523V18.08ZM128.623 28.16C128.183 28.16 127.77 28.0933 127.383 27.96C127.01 27.8133 126.697 27.6133 126.443 27.36C125.87 26.8 125.583 26.02 125.583 25.02V20.02H123.843V18.08H125.583V15.12H127.783V18.08H130.203V20.02H127.783V24.54C127.783 25.0867 127.89 25.4733 128.103 25.7C128.303 25.9667 128.63 26.1 129.083 26.1C129.47 26.1 129.85 25.9867 130.223 25.76V27.9C129.757 28.0733 129.223 28.16 128.623 28.16ZM136.396 28.32C135.422 28.32 134.542 28.0933 133.756 27.64C132.982 27.1867 132.376 26.56 131.936 25.76C131.496 24.9467 131.276 24.04 131.276 23.04C131.276 22.08 131.482 21.2 131.896 20.4C132.322 19.5867 132.916 18.9467 133.676 18.48C134.436 18 135.302 17.76 136.276 17.76C137.276 17.76 138.142 17.98 138.876 18.42C139.622 18.86 140.189 19.4733 140.576 20.26C140.962 21.0333 141.156 21.9267 141.156 22.94C141.156 23.06 141.149 23.18 141.136 23.3C141.122 23.42 141.116 23.4867 141.116 23.5H133.476C133.542 24.4067 133.869 25.1067 134.456 25.6C135.042 26.0933 135.709 26.34 136.456 26.34C137.602 26.34 138.482 25.8067 139.096 24.74L140.976 25.64C140.536 26.4533 139.922 27.1067 139.136 27.6C138.362 28.08 137.449 28.32 136.396 28.32ZM138.916 21.82C138.889 21.5 138.782 21.1733 138.596 20.84C138.409 20.5067 138.116 20.2267 137.716 20C137.329 19.76 136.842 19.64 136.256 19.64C135.602 19.64 135.036 19.84 134.556 20.24C134.089 20.64 133.769 21.1667 133.596 21.82H138.916ZM143.066 18.08H145.146V19.56H145.266C145.48 19.0533 145.866 18.6333 146.426 18.3C146.986 17.9533 147.56 17.78 148.146 17.78C148.626 17.78 149.02 17.8467 149.326 17.98V20.28C148.873 20.0533 148.366 19.94 147.806 19.94C147.086 19.94 146.48 20.22 145.986 20.78C145.506 21.3267 145.266 22 145.266 22.8V28H143.066V18.08Z" fill="white"/>
<g clip-path="url(#clip0_485_73)">
<path d="M4.74146 26.2414C4.74146 30.5264 8.21514 34 12.5001 34C16.7851 34 20.2587 30.5264 20.2587 26.2414C20.2587 21.9311 18.1036 18.4828 19.5496 15.4655C19.5496 15.4655 17.2415 15.8966 15.9484 19.3448C15.9484 19.3448 11.638 15.0345 13.4389 9C13.4389 9 9.05186 10.7241 9.51064 16.3276C9.9041 21.1326 9.05186 21.9311 9.05186 21.9311C9.05186 18.0518 6.0189 16.3276 6.0189 16.3276C6.89663 21.069 4.74146 22.3621 4.74146 26.2414Z" fill="#FFB446"/>
<path d="M18.1005 28.0789C18.1005 31.3061 15.6087 34.0611 12.382 33.9988C9.34552 33.9403 7.08629 31.63 7.32774 28.6121C7.43551 27.2651 8.45919 25.083 10.1295 22.8739L11.243 23.5474C11.207 20.8176 12.5001 17.1897 12.5001 17.1897C13.3495 21.0121 18.1005 22.0029 18.1005 28.0789Z" fill="#FFDC64"/>
<path d="M10.3449 25.3794C9.91382 27.9656 9.05176 28.9072 9.05176 30.5518C9.05176 32.276 10.5957 34.0001 12.5 34.0001C14.4182 34.0001 15.9536 32.4329 15.9483 30.5147C15.9339 25.3629 12.9311 22.7932 12.9311 22.7932C13.3622 25.3794 12.069 26.6725 12.069 26.6725C11.5304 25.8646 10.3449 25.3794 10.3449 25.3794Z" fill="white"/>
</g>
<defs>
<clipPath id="clip0_485_73">
<rect width="25" height="25" fill="white" transform="translate(0 9)"/>
</clipPath>
</defs>
</svg>
